<svg width="16" height="16" viewBox="0 0 16 16" fill="none" xmlns="http://www.w3.org/2000/svg">
<g clip-path="url(#clip0)">
<path d="M3.80001 16C3.46881 16 3.20001 15.7312 3.20001 15.4V0.6C3.20001 0.268799 3.46881 0 3.80001 0C4.13121 0 4.40001 0.268799 4.40001 0.6V15.4C4.40001 15.7312 4.13121 16 3.80001 16Z" fill="white"/>
<path d="M9.50394 8.20005H3.99994C3.66874 8.20005 3.39994 7.93125 3.39994 7.60005C3.39994 7.26885 3.66874 7.00005 3.99994 7.00005H9.50394C11.1008 7.00005 12.3999 5.70073 12.3999 4.10405C12.3999 2.49917 11.1008 1.2 9.50394 1.2H2.19994C1.86874 1.2 1.59995 0.931201 1.59995 0.6C1.59995 0.268799 1.86874 0 2.19994 0H9.50394C11.7624 0 13.5999 1.83765 13.5999 4.096C13.5999 6.3624 11.7624 8.20005 9.50394 8.20005V8.20005Z" fill="white"/>
<path d="M9.904 16H2.19995C1.86874 16 1.59995 15.7312 1.59995 15.4C1.59995 15.0688 1.86874 14.8 2.19995 14.8H9.904C11.7216 14.8 13.2 13.3208 13.2 11.504C13.2 9.6792 11.7216 8.2 9.904 8.2H3.99995C3.66875 8.2 3.39995 7.9312 3.39995 7.6C3.39995 7.2688 3.66875 7 3.99995 7H9.904C12.3833 7 14.4 9.0168 14.4 11.4959C14.4 13.9832 12.3833 16 9.904 16V16Z" fill="white"/>
</g>
<defs>
<clipPath id="clip0">
<rect width="16" height="16" fill="white"/>
</clipPath>
</defs>
</svg>
