<svg width="18" height="16" viewBox="0 0 18 16" fill="none" xmlns="http://www.w3.org/2000/svg">
<path d="M14.9318 1.27279H3.06817C2.72944 1.27279 2.45453 1.02843 2.45453 0.727339C2.45453 0.426247 2.72944 0.181885 3.06817 0.181885H14.9318C15.2705 0.181885 15.5454 0.426247 15.5454 0.727339C15.5454 1.02843 15.2705 1.27279 14.9318 1.27279Z" fill="white"/>
<path d="M17.3863 4.90903H0.613636C0.274908 4.90903 0 4.66466 0 4.36357C0 4.06248 0.274908 3.81812 0.613636 3.81812H17.3863C17.725 3.81812 18 4.06248 18 4.36357C18 4.66466 17.725 4.90903 17.3863 4.90903Z" fill="white"/>
<path d="M14.9318 8.54526H3.06817C2.72944 8.54526 2.45453 8.30089 2.45453 7.9998C2.45453 7.69871 2.72944 7.45435 3.06817 7.45435H14.9318C15.2705 7.45435 15.5454 7.69871 15.5454 7.9998C15.5454 8.30089 15.2705 8.54526 14.9318 8.54526Z" fill="white"/>
<path d="M17.3863 12.1817H0.613636C0.274908 12.1817 0 11.9374 0 11.6363C0 11.3352 0.274908 11.0908 0.613636 11.0908H17.3863C17.725 11.0908 18 11.3352 18 11.6363C18 11.9374 17.725 12.1817 17.3863 12.1817Z" fill="white"/>
<path d="M14.9318 15.8182H3.06817C2.72944 15.8182 2.45453 15.5738 2.45453 15.2728C2.45453 14.9717 2.72944 14.7273 3.06817 14.7273H14.9318C15.2705 14.7273 15.5454 14.9717 15.5454 15.2728C15.5454 15.5738 15.2705 15.8182 14.9318 15.8182Z" fill="white"/>
</svg>
