<svg width="22" height="22" viewBox="0 0 22 22" fill="none" xmlns="http://www.w3.org/2000/svg">
<g clip-path="url(#clip0)">
<path d="M22 2.52089C22 1.13028 20.8697 0 19.4791 0H2.52089C1.13028 0 0 1.13028 0 2.52089V19.4791C0 20.8697 1.13028 22 2.52089 22H19.4791C20.8697 22 22 20.8697 22 19.4791V2.52089Z" fill="#4CAF50"/>
<path d="M16.5753 7.37283C16.9336 7.73119 16.9336 8.31042 16.5753 8.66895L10.6169 14.6272C10.4381 14.8059 10.2035 14.8959 9.96881 14.8959C9.73416 14.8959 9.49951 14.8059 9.32076 14.6272L6.34164 11.6481C5.98312 11.2897 5.98312 10.7103 6.34164 10.3519C6.7 9.99342 7.27924 9.99342 7.63776 10.3519L9.96881 12.683L15.2791 7.37283C15.6375 7.01431 16.2167 7.01431 16.5753 7.37283V7.37283Z" fill="#FAFAFA"/>
</g>
<defs>
<clipPath id="clip0">
<rect width="22" height="22" fill="white"/>
</clipPath>
</defs>
</svg>
