<svg width="21" height="21" viewBox="0 0 21 21" fill="none" xmlns="http://www.w3.org/2000/svg">
<path d="M19.008 2.25672C19.9401 3.18836 19.9401 4.6993 19.008 5.63094L17.8026 6.83639L13.6281 2.66155L14.8334 1.45611C15.7655 0.524193 17.2764 0.524193 18.2082 1.45611L19.008 2.25672Z" fill="#3BC259"/>
<path d="M17.8027 6.83634L6.8841 17.7564H6.8833L2.70874 13.5816L13.6281 2.66151L17.8027 6.83634Z" fill="#2ED653"/>
<path d="M2.70869 13.5816L6.88325 17.7565L6.84437 17.7953L1.07056 19.395L2.66981 13.6205L2.70869 13.5816Z" fill="#FEDB41"/>
<path d="M18.6907 0.974041C17.4914 -0.222345 15.5505 -0.222345 14.3515 0.974041L2.1879 13.1384C2.1048 13.2218 2.04435 13.3252 2.01292 13.4383L0.413673 19.2128C0.347892 19.4496 0.414738 19.7031 0.588379 19.877C0.762285 20.0507 1.01582 20.1175 1.25258 20.052L7.02666 18.4524C7.14011 18.421 7.24371 18.3605 7.32707 18.2772L7.36569 18.2383L19.4902 6.11301C20.6883 4.91503 20.6883 2.97263 19.4902 1.77465L18.6907 0.974041ZM3.03186 14.8688L5.59626 17.4337L2.04888 18.4164L3.03186 14.8688ZM6.88391 17.7567V17.7562L7.3284 18.2007L6.88391 17.7567ZM6.88391 16.7926L3.67316 13.5816L13.6282 3.62596L16.8387 6.83638L6.88391 16.7926ZM18.5261 5.14887L17.8028 5.87224L14.5925 2.66155L15.3159 1.93818C15.9817 1.27367 17.06 1.27367 17.7261 1.93818L18.5261 2.73906C19.1919 3.40437 19.1919 4.48356 18.5261 5.14887Z" fill="#083863"/>
</svg>
