<svg width="22" height="22" viewBox="0 0 22 22" fill="none" xmlns="http://www.w3.org/2000/svg">
<circle cx="11" cy="11" r="11" fill="#EB1515"/>
<path d="M15.7436 14.0934L7.90657 6.25635C7.56477 5.91455 7.01064 5.91455 6.66938 6.25635L6.25635 6.66874C5.91455 7.01064 5.91455 7.56478 6.25635 7.90604L14.0934 15.7431C14.4353 16.0848 14.9894 16.0848 15.3307 15.7431L15.743 15.3307C16.0855 14.9894 16.0855 14.4352 15.7436 14.0934V14.0934Z" fill="white"/>
<path d="M14.0934 6.25712L6.25635 14.0941C5.91455 14.4359 5.91455 14.9902 6.25635 15.3314L6.66874 15.7438C7.01064 16.0856 7.56477 16.0856 7.90603 15.7438L15.7436 7.90734C16.0855 7.56555 16.0855 7.01142 15.7436 6.67016L15.3312 6.25776C14.9894 5.91533 14.4353 5.91533 14.0934 6.25712V6.25712Z" fill="white"/>
</svg>
