<svg width="133" height="133" viewBox="0 0 133 133" fill="none" xmlns="http://www.w3.org/2000/svg">
<path d="M35 33.4893L97 33.4893" stroke="#002265" stroke-opacity="0.78" stroke-width="8"/>
<path d="M66 101.425V46.885M66 46.885H35M66 46.885H97" stroke="#002265" stroke-opacity="0.78" stroke-width="8"/>
<mask id="path-3-inside-1" fill="white">
<rect width="133" height="133" rx="5"/>
</mask>
<rect width="133" height="133" rx="5" stroke="#002265" stroke-opacity="0.78" stroke-width="14" mask="url(#path-3-inside-1)"/>
<line x1="66.5" y1="119.604" x2="66.5" y2="126.302" stroke="#002265" stroke-opacity="0.78" stroke-width="7"/>
<line x1="80.5" y1="119.604" x2="80.5" y2="126.302" stroke="#002265" stroke-opacity="0.78" stroke-width="7"/>
<line x1="94.5" y1="119.604" x2="94.5" y2="126.302" stroke="#002265" stroke-opacity="0.78" stroke-width="7"/>
<line x1="108.5" y1="119.604" x2="108.5" y2="126.302" stroke="#002265" stroke-opacity="0.78" stroke-width="7"/>
<line x1="122.5" y1="119.604" x2="122.5" y2="126.302" stroke="#002265" stroke-opacity="0.78" stroke-width="7"/>
<line x1="52.5" y1="119.604" x2="52.5" y2="126.302" stroke="#002265" stroke-opacity="0.78" stroke-width="7"/>
<line x1="38.5" y1="119.604" x2="38.5" y2="126.302" stroke="#002265" stroke-opacity="0.78" stroke-width="7"/>
<line x1="24.5" y1="119.604" x2="24.5" y2="126.302" stroke="#002265" stroke-opacity="0.78" stroke-width="7"/>
<line x1="10.5" y1="119.604" x2="10.5" y2="126.302" stroke="#002265" stroke-opacity="0.78" stroke-width="7"/>
<line x1="66.5" y1="6.69788" x2="66.5" y2="13.3957" stroke="#002265" stroke-opacity="0.78" stroke-width="7"/>
<line x1="80.5" y1="6.69788" x2="80.5" y2="13.3957" stroke="#002265" stroke-opacity="0.78" stroke-width="7"/>
<line x1="94.5" y1="6.69788" x2="94.5" y2="13.3957" stroke="#002265" stroke-opacity="0.78" stroke-width="7"/>
<line x1="108.5" y1="6.69788" x2="108.5" y2="13.3957" stroke="#002265" stroke-opacity="0.78" stroke-width="7"/>
<line x1="122.5" y1="6.69788" x2="122.5" y2="13.3957" stroke="#002265" stroke-opacity="0.78" stroke-width="7"/>
<line x1="52.5" y1="6.69788" x2="52.5" y2="13.3957" stroke="#002265" stroke-opacity="0.78" stroke-width="7"/>
<line x1="38.5" y1="6.69788" x2="38.5" y2="13.3957" stroke="#002265" stroke-opacity="0.78" stroke-width="7"/>
<line x1="24.5" y1="6.69788" x2="24.5" y2="13.3957" stroke="#002265" stroke-opacity="0.78" stroke-width="7"/>
<line x1="10.5" y1="6.69788" x2="10.5" y2="13.3957" stroke="#002265" stroke-opacity="0.78" stroke-width="7"/>
<line x1="119" y1="66.3489" x2="126" y2="66.3489" stroke="#002265" stroke-opacity="0.78" stroke-width="7"/>
<line x1="119" y1="52.9531" x2="126" y2="52.9531" stroke="#002265" stroke-opacity="0.78" stroke-width="7"/>
<line x1="119" y1="39.5576" x2="126" y2="39.5576" stroke="#002265" stroke-opacity="0.78" stroke-width="7"/>
<line x1="119" y1="26.1619" x2="126" y2="26.1619" stroke="#002265" stroke-opacity="0.78" stroke-width="7"/>
<line x1="119" y1="12.7661" x2="126" y2="12.7661" stroke="#002265" stroke-opacity="0.78" stroke-width="7"/>
<line x1="119" y1="79.7446" x2="126" y2="79.7446" stroke="#002265" stroke-opacity="0.78" stroke-width="7"/>
<line x1="119" y1="93.1404" x2="126" y2="93.1404" stroke="#002265" stroke-opacity="0.78" stroke-width="7"/>
<line x1="119" y1="106.536" x2="126" y2="106.536" stroke="#002265" stroke-opacity="0.78" stroke-width="7"/>
<line x1="119" y1="119.932" x2="126" y2="119.932" stroke="#002265" stroke-opacity="0.78" stroke-width="7"/>
<line x1="7" y1="66.3489" x2="14" y2="66.3489" stroke="#002265" stroke-opacity="0.78" stroke-width="7"/>
<line x1="7" y1="52.9531" x2="14" y2="52.9531" stroke="#002265" stroke-opacity="0.78" stroke-width="7"/>
<line x1="7" y1="39.5576" x2="14" y2="39.5576" stroke="#002265" stroke-opacity="0.78" stroke-width="7"/>
<line x1="7" y1="26.1619" x2="14" y2="26.1619" stroke="#002265" stroke-opacity="0.78" stroke-width="7"/>
<line x1="7" y1="12.7661" x2="14" y2="12.7661" stroke="#002265" stroke-opacity="0.78" stroke-width="7"/>
<line x1="7" y1="79.7446" x2="14" y2="79.7446" stroke="#002265" stroke-opacity="0.78" stroke-width="7"/>
<line x1="7" y1="93.1404" x2="14" y2="93.1404" stroke="#002265" stroke-opacity="0.78" stroke-width="7"/>
<line x1="7" y1="106.536" x2="14" y2="106.536" stroke="#002265" stroke-opacity="0.78" stroke-width="7"/>
<line x1="7" y1="119.932" x2="14" y2="119.932" stroke="#002265" stroke-opacity="0.78" stroke-width="7"/>
</svg>
