<svg width="16" height="16" viewBox="0 0 16 16" fill="none" xmlns="http://www.w3.org/2000/svg">
<g clip-path="url(#clip0)">
<path d="M7.40078 16.0002H4.60096C4.26978 16.0002 4.00101 15.7314 4.00101 15.4002C4.00101 15.0691 4.26978 14.8003 4.60096 14.8003H7.40078C7.73195 14.8003 8.00073 15.0691 8.00073 15.4002C8.00073 15.7314 7.73195 16.0002 7.40078 16.0002Z" fill="white"/>
<path d="M11.4004 1.20112H8.60068C8.26951 1.20112 8.00073 0.932344 8.00073 0.601171C8.00073 0.269997 8.26951 0.0012207 8.60068 0.0012207H11.4004C11.7315 0.0012207 12.0003 0.269997 12.0003 0.601171C12.0003 0.932344 11.7315 1.20112 11.4004 1.20112Z" fill="white"/>
<path d="M6.00082 16C5.94883 16 5.8961 15.9935 5.8441 15.9792C5.52406 15.8935 5.33525 15.5632 5.42167 15.244L9.42139 0.445219C9.50781 0.124445 9.83738 -0.0690452 10.1573 0.0229394C10.4773 0.108479 10.6661 0.438774 10.5797 0.758084L6.57998 15.5568C6.50806 15.8239 6.26565 16 6.00082 16V16Z" fill="white"/>
</g>
<defs>
<clipPath id="clip0">
<rect width="16" height="16" fill="white"/>
</clipPath>
</defs>
</svg>
