<svg width="18" height="16" viewBox="0 0 18 16" fill="none" xmlns="http://www.w3.org/2000/svg">
<path d="M12.4772 1.27279H0.613636C0.274908 1.27279 0 1.02843 0 0.727339C0 0.426247 0.274908 0.181885 0.613636 0.181885H12.4772C12.816 0.181885 13.0909 0.426247 13.0909 0.727339C13.0909 1.02843 12.816 1.27279 12.4772 1.27279Z" fill="white"/>
<path d="M17.3863 4.90903H0.613636C0.274908 4.90903 0 4.66466 0 4.36357C0 4.06248 0.274908 3.81812 0.613636 3.81812H17.3863C17.725 3.81812 18 4.06248 18 4.36357C18 4.66466 17.725 4.90903 17.3863 4.90903Z" fill="white"/>
<path d="M12.4772 8.5455H0.613636C0.274908 8.5455 0 8.30114 0 8.00005C0 7.69895 0.274908 7.45459 0.613636 7.45459H12.4772C12.816 7.45459 13.0909 7.69895 13.0909 8.00005C13.0909 8.30114 12.816 8.5455 12.4772 8.5455Z" fill="white"/>
<path d="M17.3863 12.1817H0.613636C0.274908 12.1817 0 11.9374 0 11.6363C0 11.3352 0.274908 11.0908 0.613636 11.0908H17.3863C17.725 11.0908 18 11.3352 18 11.6363C18 11.9374 17.725 12.1817 17.3863 12.1817Z" fill="white"/>
<path d="M12.4772 15.8182H0.613636C0.274908 15.8182 0 15.5738 0 15.2727C0 14.9717 0.274908 14.7273 0.613636 14.7273H12.4772C12.816 14.7273 13.0909 14.9717 13.0909 15.2727C13.0909 15.5738 12.816 15.8182 12.4772 15.8182Z" fill="white"/>
</svg>
