<svg width="16" height="16" viewBox="0 0 16 16" fill="none" xmlns="http://www.w3.org/2000/svg">
<g clip-path="url(#clip0)">
<path d="M1.56522 5.91309H0.521739C0.233738 5.91309 0 6.14682 0 6.43483C0 6.72283 0.233738 6.95656 0.521739 6.95656H1.56522C1.66126 6.95656 1.73909 7.03452 1.73909 7.13044V7.30443C1.73909 7.40035 1.66126 7.4783 1.56522 7.4783H1.21735C0.546068 7.4783 0 8.02437 0 8.69565V9.56526C0 9.85326 0.233738 10.087 0.521739 10.087H2.26083C2.54883 10.087 2.78257 9.85326 2.78257 9.56526C2.78257 9.27726 2.54883 9.04352 2.26083 9.04352H1.04348V8.69565C1.04348 8.59974 1.12143 8.52178 1.21735 8.52178H1.56522C2.2365 8.52178 2.78257 7.97571 2.78257 7.30443V7.13044C2.78257 6.45915 2.2365 5.91309 1.56522 5.91309V5.91309Z" fill="white"/>
<path d="M1.56522 11.4783H0.521739C0.233738 11.4783 0 11.712 0 12C0 12.288 0.233738 12.5217 0.521739 12.5217H1.56522C1.66126 12.5217 1.73909 12.5996 1.73909 12.6956V12.8695C1.73909 12.9655 1.66126 13.0435 1.56522 13.0435H0.869608C0.581607 13.0435 0.347869 13.2772 0.347869 13.5652C0.347869 13.8532 0.581607 14.087 0.869608 14.087H1.56522C1.66126 14.087 1.73909 14.1648 1.73909 14.2608V14.4347C1.73909 14.5307 1.66126 14.6087 1.56522 14.6087H0.521739C0.233738 14.6087 0 14.8424 0 15.1304C0 15.4184 0.233738 15.6522 0.521739 15.6522H1.56522C2.2365 15.6522 2.78257 15.1061 2.78257 14.4347V14.2608C2.78257 14.002 2.69977 13.7628 2.56144 13.5652C2.69977 13.3677 2.78257 13.1283 2.78257 12.8695V12.6956C2.78257 12.0243 2.2365 11.4783 1.56522 11.4783V11.4783Z" fill="white"/>
<path d="M0.521739 1.39126H1.04348V3.99995C1.04348 4.28795 1.27722 4.52169 1.56522 4.52169C1.85322 4.52169 2.08696 4.28795 2.08696 3.99995V0.869517C2.08696 0.581516 1.85322 0.347778 1.56522 0.347778H0.521739C0.233738 0.347778 0 0.581516 0 0.869517C0 1.15752 0.233738 1.39126 0.521739 1.39126Z" fill="white"/>
<path d="M4.8695 3.13048H15.3043C15.689 3.13048 16 2.81943 16 2.43474C16 2.05006 15.689 1.73914 15.3043 1.73914H4.8695C4.48482 1.73914 4.17389 2.05006 4.17389 2.43474C4.17389 2.81943 4.48482 3.13048 4.8695 3.13048V3.13048Z" fill="white"/>
<path d="M15.3043 7.30444H4.8695C4.48482 7.30444 4.17389 7.61537 4.17389 8.00005C4.17389 8.38473 4.48482 8.69566 4.8695 8.69566H15.3043C15.689 8.69566 16 8.38473 16 8.00005C16 7.61537 15.689 7.30444 15.3043 7.30444V7.30444Z" fill="white"/>
<path d="M15.3043 12.8695H4.8695C4.48482 12.8695 4.17389 13.1806 4.17389 13.5652C4.17389 13.9499 4.48482 14.2609 4.8695 14.2609H15.3043C15.689 14.2609 16 13.9499 16 13.5652C16 13.1806 15.689 12.8695 15.3043 12.8695Z" fill="white"/>
</g>
<defs>
<clipPath id="clip0">
<rect width="16" height="16" fill="white"/>
</clipPath>
</defs>
</svg>
