<svg width="15" height="15" viewBox="0 0 15 15" fill="none" xmlns="http://www.w3.org/2000/svg">
<path d="M13.75 6.25001H8.74999V1.24999C8.74999 0.559613 8.19034 -3.05176e-05 7.49996 -3.05176e-05C6.80958 -3.05176e-05 6.24994 0.559613 6.24994 1.24999V6.25001H1.24999C0.559613 6.25001 -3.05176e-05 6.80966 -3.05176e-05 7.50004C-3.05176e-05 8.19042 0.559613 8.74998 1.24999 8.74998H6.25001V13.75C6.25001 14.4404 6.80966 15 7.50004 15C8.19042 15 8.74999 14.4403 8.74999 13.75V8.74998H13.75C14.4404 8.74998 15 8.19034 15 7.49996C15 6.80958 14.4403 6.25001 13.75 6.25001Z" fill="white"/>
</svg>
