<svg width="18" height="18" viewBox="0 0 18 18" fill="none" xmlns="http://www.w3.org/2000/svg">
<g clip-path="url(#clip0)">
<path d="M17.2969 9.70312H5.07172C4.68338 9.70312 4.36859 9.38834 4.36859 9C4.36859 8.61166 4.68338 8.29688 5.07172 8.29688H17.2969C17.6852 8.29688 18 8.61166 18 9C18 9.38834 17.6852 9.70312 17.2969 9.70312Z" fill="white"/>
<path d="M17.2969 14.9766H5.07172C4.68338 14.9766 4.36859 14.6618 4.36859 14.2734C4.36859 13.8851 4.68338 13.5703 5.07172 13.5703H17.2969C17.6852 13.5703 18 13.8851 18 14.2734C18 14.6618 17.6852 14.9766 17.2969 14.9766Z" fill="white"/>
<path d="M17.2969 4.42969H5.07172C4.68338 4.42969 4.36859 4.1149 4.36859 3.72656C4.36859 3.33823 4.68338 3.02344 5.07172 3.02344H17.2969C17.6852 3.02344 18 3.33823 18 3.72656C18 4.1149 17.6852 4.42969 17.2969 4.42969Z" fill="white"/>
<path d="M0.949219 13.3242C1.47346 13.3242 1.89844 13.7492 1.89844 14.2734C1.89844 14.7977 1.47346 15.2227 0.949219 15.2227C0.42498 15.2227 0 14.7977 0 14.2734C0 13.7492 0.42498 13.3242 0.949219 13.3242Z" fill="white"/>
<path d="M0.949219 8.05078C1.47346 8.05078 1.89844 8.47576 1.89844 9C1.89844 9.52424 1.47346 9.94922 0.949219 9.94922C0.42498 9.94922 0 9.52424 0 9C0 8.47576 0.42498 8.05078 0.949219 8.05078Z" fill="white"/>
<path d="M0.949219 2.77734C1.47346 2.77734 1.89844 3.20232 1.89844 3.72656C1.89844 4.2508 1.47346 4.67578 0.949219 4.67578C0.42498 4.67578 0 4.2508 0 3.72656C0 3.20232 0.42498 2.77734 0.949219 2.77734Z" fill="white"/>
</g>
<defs>
<clipPath id="clip0">
<rect width="18" height="18" transform="matrix(1 0 0 -1 0 18)" fill="white"/>
</clipPath>
</defs>
</svg>
