<svg width="18" height="16" viewBox="0 0 18 16" fill="none" xmlns="http://www.w3.org/2000/svg">
<path d="M17.3863 1.27279H5.52272C5.184 1.27279 4.90909 1.02843 4.90909 0.727339C4.90909 0.426247 5.184 0.181885 5.52272 0.181885H17.3863C17.725 0.181885 18 0.426247 18 0.727339C18 1.02843 17.725 1.27279 17.3863 1.27279Z" fill="white"/>
<path d="M17.3863 4.90903H0.613636C0.274908 4.90903 0 4.66466 0 4.36357C0 4.06248 0.274908 3.81812 0.613636 3.81812H17.3863C17.725 3.81812 18 4.06248 18 4.36357C18 4.66466 17.725 4.90903 17.3863 4.90903Z" fill="white"/>
<path d="M17.3863 8.5455H5.52272C5.184 8.5455 4.90909 8.30114 4.90909 8.00004C4.90909 7.69895 5.184 7.45459 5.52272 7.45459H17.3863C17.725 7.45459 18 7.69895 18 8.00004C18 8.30114 17.725 8.5455 17.3863 8.5455Z" fill="white"/>
<path d="M17.3863 12.1817H0.613636C0.274908 12.1817 0 11.9374 0 11.6363C0 11.3352 0.274908 11.0908 0.613636 11.0908H17.3863C17.725 11.0908 18 11.3352 18 11.6363C18 11.9374 17.725 12.1817 17.3863 12.1817Z" fill="white"/>
<path d="M17.3863 15.8182H5.52272C5.184 15.8182 4.90909 15.5738 4.90909 15.2727C4.90909 14.9717 5.184 14.7273 5.52272 14.7273H17.3863C17.725 14.7273 18 14.9717 18 15.2727C18 15.5738 17.725 15.8182 17.3863 15.8182Z" fill="white"/>
</svg>
