<svg width="16" height="16" viewBox="0 0 16 16" fill="none" xmlns="http://www.w3.org/2000/svg">
<g clip-path="url(#clip0)">
<path d="M7.99136 13.5993C4.90978 13.5993 2.40286 11.0877 2.40286 7.99967V0.598773C2.40286 0.268249 2.67111 0 3.00164 0C3.33216 0 3.60041 0.268249 3.60041 0.598773V8.0004C3.60041 10.4274 5.56995 12.4026 7.99136 12.4026C10.4129 12.4026 12.3825 10.4274 12.3825 8.0004V0.598773C12.3825 0.268249 12.6507 0 12.9812 0C13.3117 0 13.58 0.268249 13.58 0.598773V8.0004C13.58 11.0877 11.0731 13.5993 7.99136 13.5993V13.5993Z" fill="white"/>
<path d="M4.59842 1.19755H1.40486C1.07434 1.19755 0.806091 0.929296 0.806091 0.598773C0.806091 0.268249 1.07434 0 1.40486 0H4.59842C4.92894 0 5.19719 0.268249 5.19719 0.598773C5.19719 0.929296 4.92894 1.19755 4.59842 1.19755Z" fill="white"/>
<path d="M14.5779 1.19755H11.3845C11.054 1.19755 10.7857 0.929296 10.7857 0.598773C10.7857 0.268249 11.054 0 11.3845 0H14.5779C14.9084 0 15.1767 0.268249 15.1767 0.598773C15.1767 0.929296 14.9084 1.19755 14.5779 1.19755V1.19755Z" fill="white"/>
<path d="M13.7795 15.9998H2.20333C1.8728 15.9998 1.60455 15.7315 1.60455 15.401C1.60455 15.0705 1.8728 14.8022 2.20333 14.8022H13.7795C14.1101 14.8022 14.3783 15.0705 14.3783 15.401C14.3783 15.7315 14.1101 15.9998 13.7795 15.9998Z" fill="white"/>
</g>
<defs>
<clipPath id="clip0">
<rect width="16" height="16" fill="white"/>
</clipPath>
</defs>
</svg>
